<svg width="162" height="162" viewBox="0 0 162 162" fill="none" xmlns="http://www.w3.org/2000/svg">
<g clip-path="url(#clip0_2_28)">
<path d="M81 151.875C62.2028 151.875 44.1754 144.408 30.8838 131.116C17.5922 117.825 10.125 99.7972 10.125 81C10.125 62.2028 17.5922 44.1754 30.8838 30.8838C44.1754 17.5922 62.2028 10.125 81 10.125C99.7972 10.125 117.825 17.5922 131.116 30.8838C144.408 44.1754 151.875 62.2028 151.875 81C151.875 99.7972 144.408 117.825 131.116 131.116C117.825 144.408 99.7972 151.875 81 151.875ZM81 162C102.483 162 123.085 153.466 138.276 138.276C153.466 123.085 162 102.483 162 81C162 59.5175 153.466 38.9148 138.276 23.7244C123.085 8.53391 102.483 0 81 0C59.5175 0 38.9148 8.53391 23.7244 23.7244C8.53391 38.9148 0 59.5175 0 81C0 102.483 8.53391 123.085 23.7244 138.276C38.9148 153.466 59.5175 162 81 162Z" fill="black"/>
<path d="M43.3856 96.8659C44.5483 96.1946 45.9301 96.0127 47.227 96.3601C48.5239 96.7076 49.6296 97.556 50.301 98.7188C53.412 104.107 57.8871 108.582 63.276 111.692C68.6649 114.802 74.7778 116.439 81 116.438C87.2221 116.439 93.335 114.802 98.724 111.692C104.113 108.582 108.588 104.107 111.699 98.7188C112.029 98.1384 112.47 97.629 112.998 97.2199C113.526 96.8108 114.129 96.5102 114.773 96.3353C115.418 96.1603 116.09 96.1146 116.752 96.2007C117.414 96.2867 118.053 96.5029 118.631 96.8367C119.209 97.1705 119.716 97.6154 120.121 98.1458C120.527 98.6761 120.824 99.2815 120.994 99.9269C121.165 100.572 121.206 101.245 121.116 101.907C121.025 102.568 120.805 103.205 120.467 103.781C116.468 110.709 110.714 116.462 103.786 120.461C96.8582 124.46 88.9994 126.564 81 126.562C73.0006 126.564 65.1417 124.46 58.2136 120.461C51.2856 116.462 45.5324 110.709 41.5327 103.781C40.8614 102.618 40.6795 101.237 41.027 99.9398C41.3745 98.643 42.2229 97.5372 43.3856 96.8659ZM70.875 65.8125C70.875 74.196 66.339 81 60.75 81C55.161 81 50.625 74.196 50.625 65.8125C50.625 57.429 55.161 50.625 60.75 50.625C66.339 50.625 70.875 57.429 70.875 65.8125ZM111.375 65.8125C111.375 74.196 106.839 81 101.25 81C95.661 81 91.125 74.196 91.125 65.8125C91.125 57.429 95.661 50.625 101.25 50.625C106.839 50.625 111.375 57.429 111.375 65.8125Z" fill="black"/>
</g>
<defs>
<clipPath id="clip0_2_28">
<rect width="162" height="162" fill="white"/>
</clipPath>
</defs>
</svg>
