<svg width="162" height="162" viewBox="0 0 162 162" fill="none" xmlns="http://www.w3.org/2000/svg">
<g clip-path="url(#clip0_2_46)">
<path d="M81 151.875C62.2028 151.875 44.1754 144.408 30.8838 131.116C17.5922 117.825 10.125 99.7972 10.125 81C10.125 62.2028 17.5922 44.1754 30.8838 30.8838C44.1754 17.5922 62.2028 10.125 81 10.125C99.7972 10.125 117.825 17.5922 131.116 30.8838C144.408 44.1754 151.875 62.2028 151.875 81C151.875 99.7972 144.408 117.825 131.116 131.116C117.825 144.408 99.7972 151.875 81 151.875ZM81 162C102.483 162 123.085 153.466 138.276 138.276C153.466 123.085 162 102.483 162 81C162 59.5175 153.466 38.9148 138.276 23.7244C123.085 8.53391 102.483 0 81 0C59.5175 0 38.9148 8.53391 23.7244 23.7244C8.53391 38.9148 0 59.5175 0 81C0 102.483 8.53391 123.085 23.7244 138.276C38.9148 153.466 59.5175 162 81 162Z" fill="black"/>
<path d="M40.5 106.312C40.5 107.655 41.0334 108.943 41.9828 109.892C42.9322 110.842 44.2198 111.375 45.5625 111.375H116.438C117.78 111.375 119.068 110.842 120.017 109.892C120.967 108.943 121.5 107.655 121.5 106.312C121.5 104.97 120.967 103.682 120.017 102.733C119.068 101.783 117.78 101.25 116.438 101.25H45.5625C44.2198 101.25 42.9322 101.783 41.9828 102.733C41.0334 103.682 40.5 104.97 40.5 106.312ZM70.875 65.8125C70.875 57.429 66.339 50.625 60.75 50.625C55.161 50.625 50.625 57.429 50.625 65.8125C50.625 74.196 55.161 81 60.75 81C66.339 81 70.875 74.196 70.875 65.8125ZM111.375 65.8125C111.375 57.429 106.839 50.625 101.25 50.625C95.661 50.625 91.125 57.429 91.125 65.8125C91.125 74.196 95.661 81 101.25 81C106.839 81 111.375 74.196 111.375 65.8125Z" fill="black"/>
</g>
<defs>
<clipPath id="clip0_2_46">
<rect width="162" height="162" fill="white"/>
</clipPath>
</defs>
</svg>
