<svg width="198" height="198" viewBox="0 0 198 198" fill="none" xmlns="http://www.w3.org/2000/svg">
<path d="M84.5625 82.5C84.6015 81.1218 84.3637 79.7497 83.8632 78.4649C83.3627 77.1802 82.6096 76.0088 81.6486 75.0202C80.6875 74.0315 79.5379 73.2456 78.2678 72.709C76.9977 72.1724 75.6329 71.8959 74.2541 71.8959C72.8753 71.8959 71.5105 72.1724 70.2404 72.709C68.9703 73.2456 67.8208 74.0315 66.8597 75.0202C65.8986 76.0088 65.1455 77.1802 64.645 78.4649C64.1445 79.7497 63.9067 81.1218 63.9457 82.5C64.0217 85.1835 65.141 87.7316 67.0659 89.6028C68.9908 91.474 71.5696 92.5209 74.2541 92.5209C76.9387 92.5209 79.5174 91.474 81.4423 89.6028C83.3672 87.7316 84.4866 85.1835 84.5625 82.5ZM134.062 82.5C134.101 81.1218 133.864 79.7497 133.363 78.4649C132.863 77.1802 132.11 76.0088 131.149 75.0202C130.187 74.0315 129.038 73.2456 127.768 72.709C126.498 72.1724 125.133 71.8959 123.754 71.8959C122.375 71.8959 121.011 72.1724 119.74 72.709C118.47 73.2456 117.321 74.0315 116.36 75.0202C115.399 76.0088 114.646 77.1802 114.145 78.4649C113.645 79.7497 113.407 81.1218 113.446 82.5C113.522 85.1835 114.641 87.7316 116.566 89.6028C118.491 91.474 121.07 92.5209 123.754 92.5209C126.439 92.5209 129.017 91.474 130.942 89.6028C132.867 87.7316 133.987 85.1835 134.062 82.5ZM129.937 115.5C122.925 115.5 115.442 117.257 108.974 119.782C102.564 122.273 96.4837 125.755 92.5567 129.682C91.966 130.253 91.495 130.936 91.1711 131.691C90.8472 132.446 90.6769 133.258 90.6701 134.079C90.6634 134.901 90.8203 135.716 91.1318 136.476C91.4432 137.236 91.903 137.927 92.4842 138.508C93.0655 139.088 93.7565 139.547 94.5171 139.858C95.2777 140.169 96.0925 140.325 96.9141 140.318C97.7356 140.31 98.5475 140.139 99.3022 139.814C100.057 139.49 100.739 139.018 101.31 138.427C103.579 136.166 107.935 133.46 113.462 131.315C118.907 129.195 124.839 127.867 129.937 127.867H134.887C136.529 127.867 138.102 127.215 139.263 126.054C140.423 124.894 141.075 123.32 141.075 121.679C141.075 120.038 140.423 118.464 139.263 117.304C138.102 116.144 136.529 115.492 134.887 115.492L129.937 115.5ZM181.516 99C181.516 53.427 144.573 16.4835 99 16.4835C53.427 16.4835 16.5 53.427 16.5 99C16.4918 144.565 53.427 181.5 99 181.5C144.573 181.5 181.516 144.565 181.516 99ZM28.8667 99C28.7662 89.7254 30.506 80.523 33.9856 71.9253C37.4653 63.3276 42.6155 55.5054 49.1384 48.9115C55.6612 42.3175 63.4271 37.0827 71.9865 33.51C80.546 29.9374 89.729 28.0978 99.0041 28.0978C108.279 28.0978 117.462 29.9374 126.022 33.51C134.581 37.0827 142.347 42.3175 148.87 48.9115C155.393 55.5054 160.543 63.3276 164.023 71.9253C167.502 80.523 169.242 89.7254 169.141 99C168.941 117.47 161.464 135.115 148.332 148.105C135.2 161.095 117.475 168.381 99.0041 168.381C80.5332 168.381 62.8078 161.095 49.6763 148.105C36.5447 135.115 29.0671 117.47 28.8667 99Z" fill="black"/>
</svg>
