<svg width="200" height="200" viewBox="0 0 200 200" fill="none" xmlns="http://www.w3.org/2000/svg">
<path d="M85 85C84.9994 86.7354 84.5472 88.4407 83.6879 89.9484C82.8286 91.4561 81.5917 92.7142 80.0989 93.599C78.6061 94.4839 76.9087 94.965 75.1735 94.9951C73.4384 95.0253 71.7253 94.6033 70.2027 93.7708C68.6801 92.9383 67.4003 91.7239 66.4891 90.2469C65.578 88.77 65.0669 87.0813 65.0061 85.347C64.9453 83.6127 65.3369 81.8924 66.1424 80.3553C66.9478 78.8182 68.1394 77.5171 69.6 76.58L57.43 69.28C56.3454 68.5739 55.5768 67.4748 55.2858 66.2137C54.9949 64.9526 55.2043 63.6278 55.8699 62.5179C56.5356 61.408 57.6057 60.5995 58.8552 60.2623C60.1048 59.9252 61.4364 60.0856 62.57 60.71L87.59 75.71C88.5351 76.2707 89.2691 77.1272 89.6786 78.1469C90.0882 79.1667 90.1503 80.2929 89.8555 81.3516C89.5607 82.4102 88.9253 83.3422 88.0476 84.0035C87.17 84.6648 86.0989 85.0185 85 85.01M135 85.01C135 87.6622 133.946 90.2057 132.071 92.0811C130.196 93.9564 127.652 95.01 125 95.01C122.348 95.01 119.804 93.9564 117.929 92.0811C116.054 90.2057 115 87.6622 115 85.01C113.907 85.0082 112.844 84.6482 111.975 83.985C111.106 83.3219 110.478 82.3922 110.188 81.3383C109.897 80.2844 109.96 79.1644 110.367 78.1497C110.774 77.135 111.502 76.2815 112.44 75.72L137.43 60.72C137.993 60.3825 138.618 60.1593 139.267 60.0631C139.917 59.9668 140.579 59.9995 141.216 60.1592C141.853 60.319 142.453 60.6026 142.98 60.9939C143.507 61.3853 143.952 61.8766 144.29 62.44C144.627 63.0034 144.851 63.6277 144.947 64.2773C145.043 64.927 145.01 65.5892 144.851 66.2262C144.691 66.8632 144.407 67.4625 144.016 67.9899C143.625 68.5173 143.133 68.9625 142.57 69.3L130.41 76.6C131.818 77.5056 132.976 78.7501 133.778 80.2195C134.58 81.6889 135 83.336 135 85.01ZM135.62 133.91C134.59 134.733 133.277 135.116 131.966 134.976C130.655 134.835 129.452 134.183 128.62 133.16L128.59 133.13L128.36 132.88C127.995 132.492 127.615 132.118 127.22 131.76C125.664 130.353 123.965 129.113 122.15 128.06C117.54 125.36 110.28 122.51 100.02 122.51C89.76 122.51 82.49 125.35 77.86 128.07C76.0418 129.122 74.3391 130.362 72.78 131.77C72.2981 132.204 71.8375 132.661 71.4 133.14L71.37 133.17C70.9563 133.68 70.4462 134.104 69.8688 134.417C69.2914 134.73 68.658 134.926 68.0047 134.994C67.3515 135.063 66.6912 135.002 66.0615 134.815C65.4319 134.628 64.8452 134.319 64.335 133.905C63.8248 133.491 63.4011 132.981 63.0881 132.404C62.775 131.826 62.5788 131.193 62.5105 130.54C62.4423 129.886 62.5033 129.226 62.6903 128.597C62.8772 127.967 63.1863 127.38 63.6 126.87L63.62 126.86L63.64 126.84L63.69 126.78L63.83 126.6L64.32 126.06C64.72 125.62 65.3 125.053 66.06 124.36C67.58 122.98 69.81 121.21 72.8 119.45C78.8 115.92 87.8 112.51 100.02 112.51C112.24 112.51 121.22 115.91 127.22 119.45C130.22 121.21 132.44 122.98 133.95 124.35C134.729 125.064 135.47 125.818 136.17 126.61L136.32 126.78L136.37 126.84L136.39 126.87C136.39 126.88 136.4 126.89 132.5 130.01L136.4 126.89C137.226 127.925 137.608 129.245 137.462 130.561C137.315 131.877 136.653 133.082 135.62 133.91ZM100 20C78.7827 20 58.4344 28.4285 43.4315 43.4315C28.4285 58.4344 20 78.7827 20 100C20 121.217 28.4285 141.566 43.4315 156.569C58.4344 171.571 78.7827 180 100 180C121.217 180 141.566 171.571 156.569 156.569C171.571 141.566 180 121.217 180 100C180 78.7827 171.571 58.4344 156.569 43.4315C141.566 28.4285 121.217 20 100 20ZM30 100C30 90.8075 31.8106 81.705 35.3284 73.2122C38.8463 64.7194 44.0024 57.0026 50.5025 50.5025C57.0026 44.0024 64.7194 38.8463 73.2122 35.3284C81.705 31.8106 90.8075 30 100 30C109.193 30 118.295 31.8106 126.788 35.3284C135.281 38.8463 142.997 44.0024 149.497 50.5025C155.998 57.0026 161.154 64.7194 164.672 73.2122C168.189 81.705 170 90.8075 170 100C170 118.565 162.625 136.37 149.497 149.497C136.37 162.625 118.565 170 100 170C81.4348 170 63.6301 162.625 50.5025 149.497C37.375 136.37 30 118.565 30 100Z" fill="black"/>
</svg>
