<svg width="114" height="114" viewBox="0 0 114 114" fill="none" xmlns="http://www.w3.org/2000/svg">
<path d="M15.2 7.59998C15.2 7.59998 7.59998 7.59998 7.59998 15.2V54.4008C7.59998 67.5488 10.2904 83.6 34.2 83.6H38V60.8L19 68.4C19 68.4 19 49.4 38 49.4V38C38 32.6192 38.6612 27.968 41.8 24.51C44.6956 21.318 49.438 14.9492 61.9856 20.9304L68.4 25.1028V15.2C68.4 15.2 68.4 7.59998 60.8 7.59998C55.4192 7.59998 45.7672 15.2 38 15.2C30.2328 15.2 21.1812 7.59998 15.2 7.59998ZM22.8 22.8C24.8156 22.8 26.7487 23.6007 28.174 25.026C29.5993 26.4512 30.4 28.3843 30.4 30.4C30.4 32.4156 29.5993 34.3487 28.174 35.774C26.7487 37.1993 24.8156 38 22.8 38C20.7843 38 18.8512 37.1993 17.426 35.774C16.0007 34.3487 15.2 32.4156 15.2 30.4C15.2 28.3843 16.0007 26.4512 17.426 25.026C18.8512 23.6007 20.7843 22.8 22.8 22.8ZM53.2 30.4C53.2 30.4 45.6 30.4 45.6 38V76C45.6 91.2 53.2 106.4 76 106.4C98.8 106.4 106.4 91.2 106.4 76V38C106.4 30.4 98.8 30.4 98.8 30.4C93.4192 30.4 83.7672 38 76 38C68.2328 38 59.1812 30.4 53.2 30.4ZM60.8 45.6C62.8156 45.6 64.7487 46.4007 66.174 47.826C67.5993 49.2512 68.4 51.1843 68.4 53.2C68.4 55.2156 67.5993 57.1487 66.174 58.574C64.7487 59.9993 62.8156 60.8 60.8 60.8C58.7843 60.8 56.8512 59.9993 55.426 58.574C54.0007 57.1487 53.2 55.2156 53.2 53.2C53.2 51.1843 54.0007 49.2512 55.426 47.826C56.8512 46.4007 58.7843 45.6 60.8 45.6ZM91.2 45.6C93.2156 45.6 95.1487 46.4007 96.574 47.826C97.9993 49.2512 98.8 51.1843 98.8 53.2C98.8 55.2156 97.9993 57.1487 96.574 58.574C95.1487 59.9993 93.2156 60.8 91.2 60.8C89.1843 60.8 87.2512 59.9993 85.826 58.574C84.4007 57.1487 83.6 55.2156 83.6 53.2C83.6 51.1843 84.4007 49.2512 85.826 47.826C87.2512 46.4007 89.1843 45.6 91.2 45.6ZM57 76H95C95 76 95 95 76 95C57 95 57 76 57 76Z" fill="#A91E1E"/>
</svg>
