<svg width="200" height="200" viewBox="0 0 200 200" fill="none" xmlns="http://www.w3.org/2000/svg">
<path d="M91.6667 89.7667C91.6667 86.7667 89.9 84.2917 88.2334 82.6167C86.288 80.7504 84.0536 79.2111 81.6167 78.0584C76.8 75.7 70.3 74.0834 64.8167 75.575C60.0834 76.875 58.225 81.325 57.5167 84.125L56.3834 88.5417C56.1549 89.442 56.2337 90.3928 56.6075 91.2431C56.9812 92.0935 57.6283 92.7946 58.4461 93.235C59.2638 93.6755 60.2053 93.8301 61.121 93.6743C62.0366 93.5185 62.874 93.0612 63.5 92.375C65.4417 90.2417 68.3834 89.3334 72.4917 89.6584C76.625 89.9917 81.325 91.5417 85.775 93.5584C86.4096 93.847 87.1065 93.9718 87.8018 93.9213C88.4972 93.8708 89.1687 93.6466 89.7549 93.2693C90.3412 92.892 90.8234 92.3737 91.1574 91.7618C91.4914 91.1498 91.6665 90.4638 91.6667 89.7667ZM143.617 88.5417L142.483 84.1417V84.125C141.775 81.3167 139.917 76.875 135.183 75.575C129.692 74.075 123.2 75.7 118.383 78.0584C115.949 79.2119 113.718 80.7512 111.775 82.6167C110.1 84.2917 108.333 86.7584 108.333 89.7667C108.334 90.4638 108.509 91.1498 108.843 91.7618C109.177 92.3737 109.659 92.892 110.245 93.2693C110.831 93.6466 111.503 93.8708 112.198 93.9213C112.894 93.9718 113.59 93.847 114.225 93.5584C118.675 91.5417 123.375 89.9834 127.508 89.6584C131.617 89.3334 134.558 90.2417 136.5 92.3834C137.126 93.0695 137.963 93.5268 138.879 93.6826C139.795 93.8385 140.736 93.6838 141.554 93.2434C142.372 92.8029 143.019 92.1018 143.393 91.2515C143.766 90.4011 143.845 89.4503 143.617 88.55" fill="black"/>
<path fill-rule="evenodd" clip-rule="evenodd" d="M145.333 116.292C150.183 127.625 143.167 138.225 134.625 144.792C125.742 151.625 112.942 156.25 100 156.25C87.0583 156.25 74.2583 151.633 65.375 144.792C56.8333 138.225 49.8167 127.625 54.675 116.292C56.2917 112.5 60.1167 110.817 64.0417 110.875C66.5333 110.9 69.625 111.508 72.575 112.083L73.1167 112.192C79.5583 113.458 88.3333 115.175 100 115.175C109.275 115.175 118.35 113.867 127.417 112.092C130.375 111.508 133.467 110.9 135.958 110.867C139.883 110.817 143.708 112.5 145.325 116.283M129.183 124.467C122.633 125.758 112.883 127.667 99.9916 127.667C87.1083 127.667 77.35 125.75 70.8 124.467L70.4 124.383C68.8227 124.065 67.2391 123.778 65.65 123.525C65.5416 126.625 67.4667 130.633 72.9833 134.883C79.6667 140.025 89.7833 143.742 99.9916 143.742C110.2 143.742 120.317 140.025 126.992 134.883C132.517 130.633 134.442 126.633 134.342 123.525C133.142 123.7 131.467 124.025 129.183 124.467Z" fill="black"/>
<path fill-rule="evenodd" clip-rule="evenodd" d="M100 18.75C55.125 18.75 18.75 55.125 18.75 100C18.75 144.875 55.125 181.25 100 181.25C144.875 181.25 181.25 144.875 181.25 100C181.25 55.125 144.875 18.75 100 18.75ZM31.25 100C31.25 81.7664 38.4933 64.2795 51.3864 51.3864C64.2795 38.4933 81.7664 31.25 100 31.25C118.234 31.25 135.72 38.4933 148.614 51.3864C161.507 64.2795 168.75 81.7664 168.75 100C168.75 118.234 161.507 135.72 148.614 148.614C135.72 161.507 118.234 168.75 100 168.75C81.7664 168.75 64.2795 161.507 51.3864 148.614C38.4933 135.72 31.25 118.234 31.25 100Z" fill="black"/>
</svg>
