<svg width="100" height="100" viewBox="0 0 100 100" fill="none" xmlns="http://www.w3.org/2000/svg">
<path d="M79.1666 8.33331H20.8333C13.7499 8.33331 8.33325 13.75 8.33325 20.8333V79.1667C8.33325 86.25 13.7499 91.6667 20.8333 91.6667H79.1666C86.2499 91.6667 91.6666 86.25 91.6666 79.1667V20.8333C91.6666 13.75 86.2499 8.33331 79.1666 8.33331ZM33.3333 70.8333C33.3333 73.3333 31.6666 75 29.1666 75C26.6666 75 24.9999 73.3333 24.9999 70.8333V54.1666C24.9999 51.6666 26.6666 50 29.1666 50C31.6666 50 33.3333 51.6666 33.3333 54.1666V70.8333ZM54.1666 70.8333C54.1666 73.3333 52.4999 75 49.9999 75C47.4999 75 45.8333 73.3333 45.8333 70.8333V29.1666C45.8333 26.6666 47.4999 25 49.9999 25C52.4999 25 54.1666 26.6666 54.1666 29.1666V70.8333ZM74.9999 70.8333C74.9999 73.3333 73.3333 75 70.8333 75C68.3333 75 66.6666 73.3333 66.6666 70.8333V45.8333C66.6666 43.3333 68.3333 41.6666 70.8333 41.6666C73.3333 41.6666 74.9999 43.3333 74.9999 45.8333V70.8333Z" fill="#A91E1E"/>
</svg>
